<svg xmlns="http://www.w3.org/2000/svg" width="60.653" height="59.155" viewBox="0 0 60.653 59.155"><defs><style>.a{fill:#fff;}</style></defs><path class="a" d="M126.426,117.231a8.4,8.4,0,1,0-6.352,10.043l.02,0a8.344,8.344,0,0,0,6.353-9.944Zm-8.238,7.9a6.037,6.037,0,0,1-1.33-11.933,6.123,6.123,0,0,1,1.342-.153,6.02,6.02,0,0,1,.035,12.039Zm0,0" transform="translate(-98.61 -99.395)"/><path class="a" d="M58.214,7.118a1.177,1.177,0,0,0-1,.483l-3.848,5.213a2.776,2.776,0,0,1-3.8.577,2.729,2.729,0,0,1-.577-3.813l3.624-4.919a1.176,1.176,0,0,0-.2-1.652,1.2,1.2,0,0,0-.57-.243A10.333,10.333,0,0,0,40.184,15.085L38.8,16.474l-.871-3.837a1.177,1.177,0,0,0-1.411-.883h0l-3.354.765a15.213,15.213,0,0,0-2.107-2.966l1.836-2.907a1.178,1.178,0,0,0-.365-1.624l-5.06-3.189a1.177,1.177,0,0,0-1.624.365L24,5.117a15.253,15.253,0,0,0-3.53-.623L19.719,1.14A1.177,1.177,0,0,0,18.308.257h0l-5.884,1.33a1.176,1.176,0,0,0-.92,1.386.06.06,0,0,1,0,.014l.789,3.307A15.2,15.2,0,0,0,9.328,8.4L6.421,6.564A1.177,1.177,0,0,0,4.8,6.929L1.607,11.99a1.177,1.177,0,0,0,.365,1.624L4.879,15.45a15.239,15.239,0,0,0-.624,3.531l-3.342.847A1.177,1.177,0,0,0,.03,21.239h0l1.318,5.884a1.178,1.178,0,0,0,1.411.883h0l3.354-.753a15.3,15.3,0,0,0,2.106,2.966L6.386,33.126A1.177,1.177,0,0,0,6.8,34.7l5.06,3.189a1.17,1.17,0,0,0,.624.177h.2a1.174,1.174,0,0,0,.73-.518l1.836-2.907a15.253,15.253,0,0,0,3.53.623l.224.989-2.73,2.73a10.344,10.344,0,0,0-10.98,15.4,1.177,1.177,0,0,0,1.953.094l4.037-5.472a2.777,2.777,0,0,1,3.813-.577,2.718,2.718,0,0,1,.636,3.754l-3.848,5.225a1.177,1.177,0,0,0,.8,1.836,10.592,10.592,0,0,0,1.624.129,10.264,10.264,0,0,0,7.308-3.024,10.381,10.381,0,0,0,2.813-9.415l23.8-23.784A10.345,10.345,0,0,0,59.167,7.683,1.174,1.174,0,0,0,58.214,7.118ZM15.165,32.1a1.178,1.178,0,0,0-1.4.482l-1.695,2.7L9,33.361l1.694-2.7a1.177,1.177,0,0,0-.176-1.471,12.947,12.947,0,0,1-2.707-3.813,1.177,1.177,0,0,0-1.33-.659l-3.095.706-.8-3.531,3.1-.706A1.177,1.177,0,0,0,6.6,20.016,12.952,12.952,0,0,1,7.4,15.4,1.178,1.178,0,0,0,6.915,14L4.232,12.3l1.93-3.072,2.695,1.695a1.176,1.176,0,0,0,1.471-.165,12.939,12.939,0,0,1,3.813-2.707,1.177,1.177,0,0,0,.647-1.33l-.706-3.1,3.531-.8.706,3.095a1.177,1.177,0,0,0,1.177.918,13.151,13.151,0,0,1,4.613.8,1.178,1.178,0,0,0,1.4-.483L27.2,4.458l3.072,1.93L28.58,9.083a1.178,1.178,0,0,0,.177,1.471,12.968,12.968,0,0,1,2.754,3.825,1.176,1.176,0,0,0,1.33.647l3.1-.706.941,4.142L21.037,34.256l-.118-.436a1.176,1.176,0,0,0-1.177-.918A12.979,12.979,0,0,1,15.165,32.1Zm40.8-13.428a7.933,7.933,0,0,1-5.649,2.354,8.024,8.024,0,0,1-2.153-.294,1.174,1.174,0,0,0-1.177.306L22.273,45.753a1.174,1.174,0,0,0-.306,1.177,8.028,8.028,0,0,1-2.048,7.8,7.92,7.92,0,0,1-4.8,2.3l2.518-3.413a5.075,5.075,0,0,0-8.168-6.026L6.632,51.437a7.99,7.99,0,0,1,9.779-10.05,1.174,1.174,0,0,0,1.177-.306L42.3,16.309a1.177,1.177,0,0,0,.306-1.177,8.013,8.013,0,0,1,2.048-7.8,7.919,7.919,0,0,1,4.707-2.283l-2.272,3.13A5.075,5.075,0,0,0,55.26,14.2l2.659-3.613A7.965,7.965,0,0,1,55.966,18.674Zm0,0" transform="translate(0 -0.227)"/></svg>