<svg xmlns="http://www.w3.org/2000/svg" width="73.976" height="29.579" viewBox="0 0 73.976 29.579"><defs><style>.a{fill:#fff;fill-rule:evenodd;}</style></defs><g transform="translate(0 0)"><g transform="translate(0 0)"><path class="a" d="M1736.5,8441.237c0-.117-.085-4.339-.17-4.612a3.793,3.793,0,0,0-7.239,0c-.085.273-.17,4.5-.17,4.612a2.6,2.6,0,0,1-2.6,2.6h-30.727a2.6,2.6,0,0,1-2.6-2.6c0-.117-.085-4.339-.17-4.612a3.793,3.793,0,0,0-7.239,0c-.085.273-.17,4.5-.17,4.612a2.6,2.6,0,0,1-2.6,2.6h-4.722a3.751,3.751,0,0,1-3.375-2.115l-1.056-2.179a16.019,16.019,0,0,1-1.486-3.489s-.2-2.659-.13-3.76a12.166,12.166,0,0,1,.668-3.317,1.668,1.668,0,0,1,.068-.164,8.123,8.123,0,0,1,5.787-4.577c4.24-.853,12.61-2.058,15.385-2.45l4-4.284a10.217,10.217,0,0,1,7.464-3.243h21.678a8.146,8.146,0,0,1,6.178,2.838l2.846,3.308h2.065a7.822,7.822,0,0,1,7.818,7.577c0,.027,0,.052,0,.079l0,4.8c0,.035,0,.072,0,.109l-.126,2.992a14.781,14.781,0,0,1-1.491,3.586l-1.056,2.179a3.752,3.752,0,0,1-3.375,2.115h-.851A2.6,2.6,0,0,1,1736.5,8441.237Zm-10.172-2.786h-30.744c.006.353.009,2.669.009,2.786h30.727C1726.318,8441.12,1726.321,8438.8,1726.326,8438.451Zm-43.507,0h-6.8l1.036,2.137a1.151,1.151,0,0,0,1.036.649h4.722C1682.809,8441.12,1682.812,8438.8,1682.819,8438.451Zm59.2,0h-2.933c.007.353.01,2.669.01,2.786h.851a1.15,1.15,0,0,0,1.036-.649Zm-3.221-2.627c.1-.007,4.472.025,4.472.025l.127-2.992,0-4.793a5.218,5.218,0,0,0-5.219-5.058h-3.258l-3.624-4.214a5.552,5.552,0,0,0-4.208-1.932h-21.678a7.606,7.606,0,0,0-5.563,2.418l-4.626,4.955s-11.068,1.533-16.148,2.553a5.52,5.52,0,0,0-3.935,3.113,9.667,9.667,0,0,0-.5,2.56c-.063.991.127,3.39.127,3.39s8.248-.032,8.343-.025a6.393,6.393,0,0,1,12.188,0c.094-.007,31.226-.007,31.32,0a6.393,6.393,0,0,1,12.187,0Z" transform="translate(-1672.026 -8414.26)"/><g transform="translate(26.187 5.09)"><g transform="translate(19.541 0)"><path class="a" d="M2802.927,8122.338a2.6,2.6,0,0,0,2.2-2.568v-.3a2.6,2.6,0,0,0-.68-1.753l-3.731-4.085a2.6,2.6,0,0,0-1.92-.849h-6.879a2.6,2.6,0,0,0-2.6,2.6v8.778a2.6,2.6,0,0,0,2.6,2.6h3.244a2.6,2.6,0,0,0,2.068-1.024A8.9,8.9,0,0,1,2802.927,8122.338Zm-.4-2.568v-.3l-3.73-4.085h-6.879v8.778h3.244A11.5,11.5,0,0,1,2802.527,8119.77Z" transform="translate(-2789.316 -8112.787)"/></g><g transform="translate(0 0)"><path class="a" d="M2670.678,8115.389a2.6,2.6,0,0,0-2.6-2.6h-6.537a3.715,3.715,0,0,0-2.712,1.177l-3.506,3.751a2.6,2.6,0,0,0-.7,1.775v4.676a2.6,2.6,0,0,0,2.6,2.6h10.855a2.6,2.6,0,0,0,2.6-2.6Zm-2.6,0h-6.537a1.11,1.11,0,0,0-.812.354l-3.506,3.749v4.676h10.855Z" transform="translate(-2654.622 -8112.789)"/></g></g></g></g></svg>