<svg xmlns="http://www.w3.org/2000/svg" width="49.175" height="62.493" viewBox="0 0 49.175 62.493"><defs><style>.a{fill:#fff;}</style></defs><g transform="translate(-52)"><g transform="translate(52)"><g transform="translate(0)"><path class="a" d="M69.416,16.392h-.364a9.22,9.22,0,1,0-11.566,0h-.364A5.128,5.128,0,0,0,52,21.514V32.783h6.147v2.681l-3.2.4L55.2,37.9l2.946-.368v2.034l-3.2.4L55.2,42l2.946-.369v2.034l-3.2.4.254,2.033,2.946-.369V47.91a8.2,8.2,0,1,0,10.245,0V44.445l3.2-.4-.254-2.033-2.946.368V40.346l3.2-.4-.254-2.033-2.946.369V36.248l3.2-.4-.254-2.033-2.946.369v-1.4h6.147V21.514A5.128,5.128,0,0,0,69.416,16.392ZM56.1,9.22a7.171,7.171,0,1,1,7.171,7.171A7.181,7.181,0,0,1,56.1,9.22ZM69.416,54.3a6.147,6.147,0,1,1-6.147-6.147A6.153,6.153,0,0,1,69.416,54.3ZM66.343,36.5v2.034l-6.147.768V37.272Zm-6.147-1.3V32.783h6.147V34.44ZM66.343,40.6v2.034L60.2,43.4V41.37Zm0,4.1v2a8.129,8.129,0,0,0-6.147,0V45.469ZM72.49,26.636H70.441v2.049H72.49v2.049H54.049V28.685H68.392V26.636H54.049V21.514a3.077,3.077,0,0,1,3.073-3.073H69.416a3.077,3.077,0,0,1,3.073,3.073Z" transform="translate(-52)"/><path class="a" d="M105.122,42.245a5.082,5.082,0,0,0,2.984-.959l-1.195-1.665a3.071,3.071,0,1,1,.876-.968l1.774,1.024a5.123,5.123,0,1,0-4.44,2.567Z" transform="translate(-93.853 -27.902)"/><path class="a" d="M112.1,392a4.1,4.1,0,1,0,4.1,4.1A4.1,4.1,0,0,0,112.1,392Zm0,6.147a2.049,2.049,0,1,1,2.049-2.049A2.051,2.051,0,0,1,112.1,398.147Z" transform="translate(-100.829 -341.801)"/><path class="a" d="M282.538,32.783V21.514a5.128,5.128,0,0,0-5.122-5.122h-.364a9.22,9.22,0,1,0-11.566,0h-.364A5.128,5.128,0,0,0,260,21.514V32.783h6.147v2.681l-3.2.4L263.2,37.9l2.946-.368v2.034l-3.2.4L263.2,42l2.946-.369v2.034l-3.2.4.254,2.033,2.946-.369V47.91a8.2,8.2,0,1,0,10.245,0V44.445l3.2-.4-.254-2.033-2.946.368V40.346l3.2-.4-.254-2.033-2.946.369V36.248l3.2-.4-.254-2.033-2.946.369v-1.4ZM264.1,9.22a7.171,7.171,0,1,1,7.171,7.171A7.181,7.181,0,0,1,264.1,9.22ZM277.416,54.3a6.147,6.147,0,1,1-6.147-6.147A6.153,6.153,0,0,1,277.416,54.3ZM274.343,36.5v2.034l-6.147.768V37.272Zm-6.147-1.3V32.783h6.147V34.44Zm6.147,5.394v2.034L268.2,43.4V41.37Zm0,4.1v2a8.129,8.129,0,0,0-6.147,0V45.469ZM262.049,30.734V28.685h14.343V26.636H262.049V21.514a3.077,3.077,0,0,1,3.073-3.073h12.294a3.077,3.077,0,0,1,3.073,3.073v5.122h-2.049v2.049h2.049v2.049Z" transform="translate(-233.364)"/><path class="a" d="M313.122,42.245A5.122,5.122,0,1,0,308,37.122,5.128,5.128,0,0,0,313.122,42.245Zm0-8.2a3.073,3.073,0,1,1-3.073,3.073A3.077,3.077,0,0,1,313.122,34.049Z" transform="translate(-275.217 -27.902)"/><path class="a" d="M320.1,392a4.1,4.1,0,1,0,2.181,7.568l-1.092-1.732a2.053,2.053,0,1,1,.813-.976l1.9.76A4.1,4.1,0,0,0,320.1,392Z" transform="translate(-282.192 -341.801)"/></g></g></g></svg>