<svg xmlns="http://www.w3.org/2000/svg" width="235.296" height="174.62" viewBox="0 0 235.296 174.62"><defs><style>.a{fill:#e71c0d;}</style></defs><path class="a" d="M435.991,189.958,404.41,219.944l31.581,37.31,31.582-37.308Z" transform="translate(-318.343 -189.958)"/><g transform="translate(0 28.255)"><path class="a" d="M545.411,209.217l-61.36,74.056v35.2a14.807,14.807,0,0,1-14.458,14.873c-.129,0-.259,0-.391,0s-.26,0-.389,0a14.806,14.806,0,0,1-14.458-14.873v-35.2L393,209.217l-41.44-1.907s90.819,127.732,95.358,134c7.365,10.171,15.621,12.364,22.289,12.364h0c6.668,0,14.926-2.193,22.289-12.364,4.54-6.269,95.358-134,95.358-134Z" transform="translate(-351.555 -207.31)"/></g></svg>