<svg xmlns="http://www.w3.org/2000/svg" width="161.33" height="134.962" viewBox="0 0 161.33 134.962"><defs><style>.a{fill:#fff;}</style></defs><path class="a" d="M242.355,186.365c-.119.02-.641.037-.847.037H224.959v3.827h16.793c.139,0,1.105,0,1.325-.024a5.709,5.709,0,0,0,.258-11.288,12.852,12.852,0,0,0-1.356-.058H231.03a6.354,6.354,0,0,1-1.22-.095,1.6,1.6,0,0,1-1.186-1.62,1.664,1.664,0,0,1,1.217-1.613,4.18,4.18,0,0,1,1.149-.081h15.844v-3.793H230.722a11.555,11.555,0,0,0-1.61.085,5.5,5.5,0,0,0-.064,10.864,13.9,13.9,0,0,0,1.729.078h10.7a7.43,7.43,0,0,1,.776.024,1.854,1.854,0,0,1,.095,3.668Z" transform="translate(-148.351 -113.469)"/><path class="a" d="M150.068,186.365c-.119.02-.641.037-.847.037H132.689v3.827h16.793c.139,0,1.108,0,1.329-.024a5.708,5.708,0,0,0,.241-11.288,12.836,12.836,0,0,0-1.356-.058H138.746a6.348,6.348,0,0,1-1.22-.095,1.6,1.6,0,0,1-1.183-1.62,1.664,1.664,0,0,1,1.214-1.613,4.179,4.179,0,0,1,1.149-.081h15.844v-3.793h-16.1a11.518,11.518,0,0,0-1.61.085,5.5,5.5,0,0,0-.064,10.864,14.529,14.529,0,0,0,1.729.078H149.2a7.391,7.391,0,0,1,.776.024,1.849,1.849,0,0,1,.092,3.658Z" transform="translate(-87.358 -113.469)"/><rect class="a" width="4.152" height="18.779" transform="translate(32.538 58.086)"/><path class="a" d="M23.348,190.136V171.36H19.193v13.993L5.349,171.36H0v18.776H4.156V176.051L18.1,190.136Z" transform="translate(0 -113.274)"/><path class="a" d="M426.263,171.36v13.993L412.419,171.36H407.07v18.776h4.156V176.051l13.942,14.084h5.247V171.36Z" transform="translate(-269.085 -113.274)"/><path class="a" d="M320.325,171.36,308.6,190.136h5.041l2.085-3.352h13.688l2.085,3.352h5.034L324.81,171.36Zm6.929,11.864h-9.386l4.7-7.546Z" transform="translate(-203.993 -113.274)"/><path class="a" d="M32.326,47.415a60.95,60.95,0,0,1,115.135,0l.071.2h18.325v-2.2l-7.623-.888c-4.7-.549-5.7-2.617-6.976-5.244l-.308-.634a67.548,67.548,0,0,0-122.108-.014l-.312.644c-1.271,2.624-2.274,4.695-6.976,5.244l-7.623.892v2.2H32.258Z" transform="translate(-9.208)"/><path class="a" d="M147.529,257.657l-.068.2a60.735,60.735,0,0,1-57.578,40.921h0a60.733,60.733,0,0,1-57.564-40.934l-.068-.2H13.93v2.2l7.62.891c4.7.549,5.7,2.62,6.976,5.244l.308.631a67.632,67.632,0,0,0,61.049,38.663h0a67.624,67.624,0,0,0,61.046-38.643l.312-.637c1.271-2.624,2.278-4.695,6.979-5.244l7.624-.888v-2.2Z" transform="translate(-9.208 -170.307)"/></svg>