<svg xmlns="http://www.w3.org/2000/svg" width="150.511" height="28.197" viewBox="0 0 150.511 28.197"><defs><style>.a{fill:#fff;}</style></defs><g transform="translate(-676.496 -1163.569)"><g transform="translate(676.496 1163.569)"><path class="a" d="M409.509,189.958l-5.1,4.842,5.1,6.025,5.1-6.024Z" transform="translate(-390.512 -189.958)"/><g transform="translate(0 4.562)"><path class="a" d="M382.858,207.618l-9.908,11.958v5.684a2.391,2.391,0,0,1-2.335,2.4h-.126a2.391,2.391,0,0,1-2.335-2.4v-5.684l-9.908-11.958-6.692-.308s14.665,20.625,15.4,21.638a4.251,4.251,0,0,0,3.6,2h0a4.25,4.25,0,0,0,3.6-2c.733-1.012,15.4-21.638,15.4-21.638Z" transform="translate(-351.555 -207.31)"/></g></g><g transform="translate(725.029 1168.458)"><path class="a" d="M257.078,333.4l-4.565,8.62-4.565-8.62H240.3l8.833,13.448v6.65h6.749v-6.65L264.72,333.4Z" transform="translate(-240.305 -333.398)"/><path class="a" d="M330.284,353.5h6.948L328.6,333.4h-7.841l-8.635,20.1h6.947l1.164-3.151h8.888Zm-8.53-7.27,2.923-7.915,2.923,7.915Z" transform="translate(-292.016 -333.398)"/><path class="a" d="M533.034,353.5h6.947l-8.635-20.1h-7.841l-8.635,20.1h6.948l1.164-3.151h8.888Zm-8.53-7.27,2.923-7.915,2.923,7.915Z" transform="translate(-438.003 -333.398)"/><path class="a" d="M426.43,333.4l-4.578,13.361h-.558L416.717,333.4h-9.491v20.1h6.215V337.789l5.582,15.705h5.1l5.582-15.705V353.5h6.216V333.4Z" transform="translate(-360.495 -333.398)"/></g></g></svg>