<svg xmlns="http://www.w3.org/2000/svg" width="157.79" height="29.561" viewBox="0 0 157.79 29.561"><defs><style>.a{fill:#e71c0d;}.b{fill:#fff;}</style></defs><g transform="translate(-676.496 -1163.569)"><g transform="translate(676.496 1163.569)"><path class="a" d="M409.756,189.958l-5.346,5.076,5.346,6.316,5.346-6.316Z" transform="translate(-389.84 -189.958)"/><g transform="translate(0 4.783)"><path class="a" d="M384.372,207.633l-10.387,12.536v5.959a2.507,2.507,0,0,1-2.448,2.518H371.4a2.506,2.506,0,0,1-2.448-2.518v-5.959L358.57,207.633l-7.015-.323s15.374,21.623,16.143,22.684a4.456,4.456,0,0,0,3.773,2.093h0a4.456,4.456,0,0,0,3.773-2.093c.769-1.061,16.143-22.684,16.143-22.684Z" transform="translate(-351.555 -207.31)"/></g></g><g transform="translate(727.377 1168.694)"><path class="b" d="M257.889,333.4l-4.786,9.037-4.786-9.037h-8.012l9.26,14.1v6.971h7.075V347.5l9.26-14.1Z" transform="translate(-240.305 -333.398)"/><path class="b" d="M331.163,354.468h7.284l-9.052-21.07h-8.22l-9.052,21.07h7.283l1.22-3.3h9.318Zm-8.943-7.622,3.064-8.3,3.064,8.3Z" transform="translate(-291.044 -333.398)"/><path class="b" d="M533.912,354.468H541.2l-9.052-21.07h-8.22l-9.052,21.07h7.284l1.22-3.3h9.317Zm-8.943-7.622,3.064-8.3,3.064,8.3Z" transform="translate(-434.286 -333.398)"/><path class="b" d="M427.359,333.4l-4.8,14.008h-.585l-4.8-14.008h-9.95v21.07h6.516V338l5.852,16.465h5.346L430.792,338v16.466h6.516V333.4Z" transform="translate(-358.235 -333.398)"/></g></g></svg>