<svg xmlns="http://www.w3.org/2000/svg" width="489" height="92" viewBox="0 0 489 92"><g><g><g><g><path fill="#e71c0d" d="M61.66.48L45.108 16.196 61.66 35.75l16.552-19.553z"/></g><g><g><path fill="#e71c0d" d="M101.602 16.288l-32.16 38.814V73.55c0 4.222-3.356 7.73-7.577 7.796l-.205.001-.204-.001c-4.222-.065-7.577-3.574-7.577-7.796V55.102l-32.16-38.814-21.719-1S47.6 82.235 49.978 85.52C53.838 90.85 58.165 92 61.66 92h.001c3.495 0 7.823-1.15 11.682-6.48 2.38-3.286 49.978-70.231 49.978-70.231z"/></g></g></g><g><g><path fill="#202121" d="M211.97 16.35L197.15 44.327 182.333 16.35h-24.805L186.198 60v21.584h21.906V59.999l28.67-43.65z"/></g><g><path fill="#202121" d="M254.05 57.986l9.488-25.69 9.487 25.69zm27.689 23.597h22.55L276.263 16.35h-25.45l-28.026 65.233h22.55l3.777-10.228h28.848z"/></g><g><path fill="#202121" d="M438.288 57.986l9.487-25.69 9.486 25.69zm27.688 23.597h22.55L460.499 16.35H435.05l-28.027 65.233h22.55l3.778-10.228h28.847z"/></g><g><path fill="#202121" d="M371.54 16.35l-14.86 43.367h-1.81L340.013 16.35h-30.805v65.234h20.174v-50.98l18.12 50.977-.001.003H364.052l-.001-.003 18.12-50.976v50.979h20.173V16.349z"/></g></g></g></g></svg>