<svg xmlns="http://www.w3.org/2000/svg" width="62" height="90" viewBox="0 0 62 90"><g><g><path d="M16.172 24.581c.448 0 .995 1.307.995 2.831 0 1.804-.663 3.177-.995 3.177-.444 0-1.236-1.601-1.236-3.177 0-1.431.708-2.83 1.236-2.83zm29.655 6.008c-.331 0-.994-1.374-.994-3.177 0-1.525.546-2.831.994-2.831.529 0 1.237 1.4 1.237 2.83 0 1.577-.793 3.178-1.237 3.178zm-29.655 2.007c2.202 0 3.002-3.1 3.002-5.184 0-1.771-.545-3.642-1.71-4.439.393-5.872 6.421-10.724 13.535-10.724s13.143 4.852 13.537 10.724c-1.167.797-1.711 2.668-1.711 4.44 0 2.083.8 5.183 3.002 5.183 2.213 0 3.244-3.093 3.244-5.184 0-2.036-.95-4.214-2.531-4.725-.557-6.833-7.444-12.445-15.54-12.445s-14.983 5.612-15.54 12.444c-1.58.512-2.531 2.69-2.531 4.726 0 2.09 1.03 5.184 3.243 5.184zm17.889 31.623L31 68.07l-3.059-3.848a.128.128 0 0 1-.028-.093l.173-1.678 5.58-2.429.421 4.107a.131.131 0 0 1-.026.091zM31 49.24c.534 0 1.047-.096 1.53-.262l.274 2.678-3.778 1.645.444-4.322c.483.165.996.261 1.53.261zm2.51-3.706a2.702 2.702 0 0 1-2.51 1.7 2.702 2.702 0 0 1-2.51-1.7zm-4.719 10.058l4.23-1.841.429 4.177-5.129 2.233zm5.63-7.842a4.67 4.67 0 0 0 1.21-2.359 1.582 1.582 0 0 0-1.559-1.864h-6.144a1.584 1.584 0 0 0-1.559 1.863 4.67 4.67 0 0 0 1.21 2.36l-1.662 16.174a2.128 2.128 0 0 0 .452 1.546l3.405 4.283c.299.376.746.592 1.227.592.48 0 .928-.216 1.226-.592l3.407-4.285c.347-.439.507-.988.45-1.544zM31 77.75c-10.967 0-18.333-11.48-18.333-22.203 0-9.868 5.825-14.464 18.333-14.464s18.333 4.596 18.333 14.464C49.333 66.27 41.967 77.75 31 77.75zm-1.834-42.54c0-.512.824-1.084 1.928-1.084 1.103 0 1.928.572 1.928 1.084 0 .512-.825 1.083-1.928 1.083-1.104 0-1.928-.571-1.928-1.083zm-5.45-.283a8.051 8.051 0 0 0 3.632 1.245c.504 1.247 1.969 2.128 3.746 2.128 2.206 0 3.935-1.357 3.935-3.09 0-1.732-1.729-3.09-3.935-3.09-1.733 0-3.167.839-3.704 2.037-3.343-.386-5.618-3.21-5.635-7.142.493-5.474 4.45-9.754 9.245-9.754 5.127 0 9.298 4.893 9.298 10.907S36.128 39.077 31 39.077c-2.95 0-5.58-1.626-7.284-4.15zm12.79 4.51c3.455-2.213 5.798-6.432 5.798-11.269 0-7.121-5.071-12.914-11.304-12.914-5.88 0-10.721 5.157-11.252 11.718v.017c-.031.389-.052.781-.052 1.18 0 4.836 2.343 9.055 5.798 11.267-9.848 1.385-14.834 6.785-14.834 16.11 0 11.644 7.777 24.21 20.34 24.21 12.563 0 20.34-12.566 20.34-24.21 0-9.325-4.986-14.725-14.834-16.11z"/><path fill="none" stroke="#202121" stroke-miterlimit="20" d="M16.172 24.581c.448 0 .995 1.307.995 2.831 0 1.804-.663 3.177-.995 3.177-.444 0-1.236-1.601-1.236-3.177 0-1.431.708-2.83 1.236-2.83zm29.655 6.008c-.331 0-.994-1.374-.994-3.177 0-1.525.546-2.831.994-2.831.529 0 1.237 1.4 1.237 2.83 0 1.577-.793 3.178-1.237 3.178zm-29.655 2.007c2.202 0 3.002-3.1 3.002-5.184 0-1.771-.545-3.642-1.71-4.439.393-5.872 6.421-10.724 13.535-10.724s13.143 4.852 13.537 10.724c-1.167.797-1.711 2.668-1.711 4.44 0 2.083.8 5.183 3.002 5.183 2.213 0 3.244-3.093 3.244-5.184 0-2.036-.95-4.214-2.531-4.725-.557-6.833-7.444-12.445-15.54-12.445s-14.983 5.612-15.54 12.444c-1.58.512-2.531 2.69-2.531 4.726 0 2.09 1.03 5.184 3.243 5.184zm17.889 31.623L31 68.07l-3.059-3.848a.128.128 0 0 1-.028-.093l.173-1.678 5.58-2.429.421 4.107a.131.131 0 0 1-.026.091zM31 49.24c.534 0 1.047-.096 1.53-.262l.274 2.678-3.778 1.645.444-4.322c.483.165.996.261 1.53.261zm2.51-3.706a2.702 2.702 0 0 1-2.51 1.7 2.702 2.702 0 0 1-2.51-1.7zm-4.719 10.058l4.23-1.841.429 4.177-5.129 2.233zm5.63-7.842a4.67 4.67 0 0 0 1.21-2.359 1.582 1.582 0 0 0-1.559-1.864h-6.144a1.584 1.584 0 0 0-1.559 1.863 4.67 4.67 0 0 0 1.21 2.36l-1.662 16.174a2.128 2.128 0 0 0 .452 1.546l3.405 4.283c.299.376.746.592 1.227.592.48 0 .928-.216 1.226-.592l3.407-4.285c.347-.439.507-.988.45-1.544zM31 77.75c-10.967 0-18.333-11.48-18.333-22.203 0-9.868 5.825-14.464 18.333-14.464s18.333 4.596 18.333 14.464C49.333 66.27 41.967 77.75 31 77.75zm-1.834-42.54c0-.512.824-1.084 1.928-1.084 1.103 0 1.928.572 1.928 1.084 0 .512-.825 1.083-1.928 1.083-1.104 0-1.928-.571-1.928-1.083zm-5.45-.283a8.051 8.051 0 0 0 3.632 1.245c.504 1.247 1.969 2.128 3.746 2.128 2.206 0 3.935-1.357 3.935-3.09 0-1.732-1.729-3.09-3.935-3.09-1.733 0-3.167.839-3.704 2.037-3.343-.386-5.618-3.21-5.635-7.142.493-5.474 4.45-9.754 9.245-9.754 5.127 0 9.298 4.893 9.298 10.907S36.128 39.077 31 39.077c-2.95 0-5.58-1.626-7.284-4.15zm12.79 4.51c3.455-2.213 5.798-6.432 5.798-11.269 0-7.121-5.071-12.914-11.304-12.914-5.88 0-10.721 5.157-11.252 11.718h0v.017c-.031.389-.052.781-.052 1.18 0 4.836 2.343 9.055 5.798 11.267-9.848 1.385-14.834 6.785-14.834 16.11 0 11.644 7.777 24.21 20.34 24.21 12.563 0 20.34-12.566 20.34-24.21 0-9.325-4.986-14.725-14.834-16.11z"/></g></g></svg>