<svg xmlns="http://www.w3.org/2000/svg" width="52" height="70" viewBox="0 0 52 70"><g><g><g><g><g><path d="M26 22.11a9.29 9.29 0 0 1-9.297-9.297c0-5.123 4.174-9.28 9.297-9.297a9.29 9.29 0 0 1 9.297 9.297A9.29 9.29 0 0 1 26 22.11zM26 .242c-6.94 0-12.57 5.631-12.57 12.571.016 6.94 5.63 12.57 12.57 12.57s12.57-5.63 12.57-12.57S32.94.243 26 .243z"/></g></g></g><g><g><g><path d="M7.668 41.883c.229-5.074.523-5.598.753-6.007 0-.017.016-.017.016-.033.426-.835.95-1.62 1.555-2.324l.016-.017c2.701-3.257 7.202-4.485 11.474-3.093 2.947.933 6.09.933 9.035 0 4.338-1.392 8.725-.213 11.474 3.077a13.062 13.062 0 0 1 1.572 2.422c0 .017.016.017.016.033.23.41.524 1.031.737 5.942zm38.808-7.464a16.371 16.371 0 0 0-1.947-2.98l-.017-.015c-3.552-4.305-9.428-5.926-14.993-4.142-2.292.72-4.747.72-7.038 0-5.549-1.8-11.425-.196-14.993 4.109-.77.9-1.44 1.899-1.981 2.962-.573 1.08-.95 2.128-1.195 9.134-.016.442.147.867.458 1.178a1.67 1.67 0 0 0 1.195.491h40.07a1.61 1.61 0 0 0 1.636-1.587v-.082c-.245-6.94-.605-7.988-1.195-9.068z"/></g></g></g><g><g><g><path d="M42.695 62.818c.344.441.868.67 1.424.638l2.947-.23c-1.113 1.605-2.93 2.505-5.222 2.505h-.065c-2.832 0-5.074-2.03-5.958-3.912a1.646 1.646 0 0 0-1.49-.95H17.963a1.65 1.65 0 0 0-1.571 1.163c-.835 2.75-3.225 4.452-6.253 4.452-2.062 0-3.814-.77-4.976-2.095l2.701.229a1.647 1.647 0 0 0 1.44-.638l.033-.033a6.164 6.164 0 0 0-.033-7.497 1.617 1.617 0 0 0-1.424-.638l-3.011.23c1.08-1.654 2.897-2.57 5.205-2.57 2.88 0 5.172 2.078 6.072 3.977.262.573.835.95 1.473.966h16.434a1.702 1.702 0 0 0 1.571-1.195c.835-2.75 3.225-4.469 6.237-4.469 2.046.017 3.797.786 4.96 2.128l-2.702-.23a1.646 1.646 0 0 0-1.44.64l-.033.032a6.14 6.14 0 0 0 .05 7.497zm6.826-4.453c.9.082 1.686-.589 1.768-1.49.016-.196 0-.392-.066-.588-1.195-4.109-4.861-6.744-9.346-6.793-4.027 0-7.415 2.21-8.953 5.647H18.602c-1.817-2.946-5.124-4.91-8.512-4.91-4.714 0-8.282 2.782-9.313 7.3a1.62 1.62 0 0 0 1.718 1.98l4.632-.36c.279.688.279 1.44 0 2.128l-4.648-.393c-.9-.082-1.686.59-1.768 1.49-.016.196 0 .392.066.589 1.195 4.125 4.877 6.793 9.395 6.793 4.026 0 7.415-2.177 8.953-5.615h14.24c1.572 2.62 4.584 4.845 8.397 4.845h.099c4.664 0 8.249-2.766 9.362-7.218a1.628 1.628 0 0 0-1.195-1.98 1.395 1.395 0 0 0-.524-.05l-4.632.36a2.816 2.816 0 0 1 0-2.127z"/></g></g></g></g></g></svg>